<svg xmlns="http://www.w3.org/2000/svg" width="920" height="560" viewBox="0 0 920 560">
<rect width="100%" height="100%" fill="#ffffff"/>
<text x="88" y="32" font-family="Arial" font-size="22" font-weight="700" fill="#111827">Route Distance vs Budget</text>
<text x="88" y="542" font-family="Arial" font-size="13" fill="#374151">Budget (miles)</text>
<text x="18" y="272.0" transform="rotate(-90 18 272.0)" font-family="Arial" font-size="13" fill="#374151">Mean distance (miles)</text>
<line x1="88" y1="56" x2="88" y2="488" stroke="#111827" stroke-width="1.2"/>
<line x1="88" y1="488" x2="886" y2="488" stroke="#111827" stroke-width="1.2"/>
<line x1="88" y1="488.00" x2="886" y2="488.00" stroke="#e5e7eb" stroke-width="1"/>
<text x="78" y="492.00" text-anchor="end" font-family="Arial" font-size="12" fill="#4b5563">0</text>
<line x1="88" y1="401.60" x2="886" y2="401.60" stroke="#e5e7eb" stroke-width="1"/>
<text x="78" y="405.60" text-anchor="end" font-family="Arial" font-size="12" fill="#4b5563">2164</text>
<line x1="88" y1="315.20" x2="886" y2="315.20" stroke="#e5e7eb" stroke-width="1"/>
<text x="78" y="319.20" text-anchor="end" font-family="Arial" font-size="12" fill="#4b5563">4327</text>
<line x1="88" y1="228.80" x2="886" y2="228.80" stroke="#e5e7eb" stroke-width="1"/>
<text x="78" y="232.80" text-anchor="end" font-family="Arial" font-size="12" fill="#4b5563">6491</text>
<line x1="88" y1="142.40" x2="886" y2="142.40" stroke="#e5e7eb" stroke-width="1"/>
<text x="78" y="146.40" text-anchor="end" font-family="Arial" font-size="12" fill="#4b5563">8655</text>
<line x1="88" y1="56.00" x2="886" y2="56.00" stroke="#e5e7eb" stroke-width="1"/>
<text x="78" y="60.00" text-anchor="end" font-family="Arial" font-size="12" fill="#4b5563">10819</text>
<line x1="88.00" y1="488" x2="88.00" y2="493" stroke="#111827"/>
<text x="88.00" y="512" text-anchor="middle" font-family="Arial" font-size="12" fill="#111827">4000</text>
<line x1="354.00" y1="488" x2="354.00" y2="493" stroke="#111827"/>
<text x="354.00" y="512" text-anchor="middle" font-family="Arial" font-size="12" fill="#111827">6000</text>
<line x1="620.00" y1="488" x2="620.00" y2="493" stroke="#111827"/>
<text x="620.00" y="512" text-anchor="middle" font-family="Arial" font-size="12" fill="#111827">8000</text>
<line x1="886.00" y1="488" x2="886.00" y2="493" stroke="#111827"/>
<text x="886.00" y="512" text-anchor="middle" font-family="Arial" font-size="12" fill="#111827">10000</text>
<line x1="526" y1="30" x2="544" y2="30" stroke="#2563eb" stroke-width="3"/>
<circle cx="535" cy="30" r="4" fill="#2563eb"/>
<text x="550" y="34" font-family="Arial" font-size="12" fill="#111827">Attention</text>
<line x1="618" y1="30" x2="636" y2="30" stroke="#dc2626" stroke-width="3"/>
<circle cx="627" cy="30" r="4" fill="#dc2626"/>
<text x="642" y="34" font-family="Arial" font-size="12" fill="#111827">P-MARL</text>
<line x1="710" y1="30" x2="728" y2="30" stroke="#16a34a" stroke-width="3"/>
<circle cx="719" cy="30" r="4" fill="#16a34a"/>
<text x="734" y="34" font-family="Arial" font-size="12" fill="#111827">Greedy 2</text>
<line x1="802" y1="30" x2="820" y2="30" stroke="#6b7280" stroke-width="3"/>
<circle cx="811" cy="30" r="4" fill="#6b7280"/>
<text x="826" y="34" font-family="Arial" font-size="12" fill="#111827">Greedy 1</text>
<polyline fill="none" stroke="#2563eb" stroke-width="2.4" points="88.00,332.94 354.00,254.26 620.00,174.25 886.00,93.81"/>
<line x1="88.00" y1="327.01" x2="88.00" y2="338.88" stroke="#2563eb" stroke-width="1.2" opacity="0.7"/>
<line x1="83.00" y1="327.01" x2="93.00" y2="327.01" stroke="#2563eb" stroke-width="1.2" opacity="0.7"/>
<line x1="83.00" y1="338.88" x2="93.00" y2="338.88" stroke="#2563eb" stroke-width="1.2" opacity="0.7"/>
<circle cx="88.00" cy="332.94" r="4.5" fill="#2563eb" stroke="#ffffff" stroke-width="1.4"/>
<line x1="354.00" y1="246.56" x2="354.00" y2="261.97" stroke="#2563eb" stroke-width="1.2" opacity="0.7"/>
<line x1="349.00" y1="246.56" x2="359.00" y2="246.56" stroke="#2563eb" stroke-width="1.2" opacity="0.7"/>
<line x1="349.00" y1="261.97" x2="359.00" y2="261.97" stroke="#2563eb" stroke-width="1.2" opacity="0.7"/>
<circle cx="354.00" cy="254.26" r="4.5" fill="#2563eb" stroke="#ffffff" stroke-width="1.4"/>
<line x1="620.00" y1="167.57" x2="620.00" y2="180.93" stroke="#2563eb" stroke-width="1.2" opacity="0.7"/>
<line x1="615.00" y1="167.57" x2="625.00" y2="167.57" stroke="#2563eb" stroke-width="1.2" opacity="0.7"/>
<line x1="615.00" y1="180.93" x2="625.00" y2="180.93" stroke="#2563eb" stroke-width="1.2" opacity="0.7"/>
<circle cx="620.00" cy="174.25" r="4.5" fill="#2563eb" stroke="#ffffff" stroke-width="1.4"/>
<line x1="886.00" y1="89.42" x2="886.00" y2="98.20" stroke="#2563eb" stroke-width="1.2" opacity="0.7"/>
<line x1="881.00" y1="89.42" x2="891.00" y2="89.42" stroke="#2563eb" stroke-width="1.2" opacity="0.7"/>
<line x1="881.00" y1="98.20" x2="891.00" y2="98.20" stroke="#2563eb" stroke-width="1.2" opacity="0.7"/>
<circle cx="886.00" cy="93.81" r="4.5" fill="#2563eb" stroke="#ffffff" stroke-width="1.4"/>
<polyline fill="none" stroke="#dc2626" stroke-width="2.4" points="88.00,333.27 354.00,253.98 620.00,174.50 886.00,96.02"/>
<line x1="88.00" y1="328.49" x2="88.00" y2="338.04" stroke="#dc2626" stroke-width="1.2" opacity="0.7"/>
<line x1="83.00" y1="328.49" x2="93.00" y2="328.49" stroke="#dc2626" stroke-width="1.2" opacity="0.7"/>
<line x1="83.00" y1="338.04" x2="93.00" y2="338.04" stroke="#dc2626" stroke-width="1.2" opacity="0.7"/>
<circle cx="88.00" cy="333.27" r="4.5" fill="#dc2626" stroke="#ffffff" stroke-width="1.4"/>
<line x1="354.00" y1="247.16" x2="354.00" y2="260.79" stroke="#dc2626" stroke-width="1.2" opacity="0.7"/>
<line x1="349.00" y1="247.16" x2="359.00" y2="247.16" stroke="#dc2626" stroke-width="1.2" opacity="0.7"/>
<line x1="349.00" y1="260.79" x2="359.00" y2="260.79" stroke="#dc2626" stroke-width="1.2" opacity="0.7"/>
<circle cx="354.00" cy="253.98" r="4.5" fill="#dc2626" stroke="#ffffff" stroke-width="1.4"/>
<line x1="620.00" y1="169.41" x2="620.00" y2="179.58" stroke="#dc2626" stroke-width="1.2" opacity="0.7"/>
<line x1="615.00" y1="169.41" x2="625.00" y2="169.41" stroke="#dc2626" stroke-width="1.2" opacity="0.7"/>
<line x1="615.00" y1="179.58" x2="625.00" y2="179.58" stroke="#dc2626" stroke-width="1.2" opacity="0.7"/>
<circle cx="620.00" cy="174.50" r="4.5" fill="#dc2626" stroke="#ffffff" stroke-width="1.4"/>
<line x1="886.00" y1="89.52" x2="886.00" y2="102.53" stroke="#dc2626" stroke-width="1.2" opacity="0.7"/>
<line x1="881.00" y1="89.52" x2="891.00" y2="89.52" stroke="#dc2626" stroke-width="1.2" opacity="0.7"/>
<line x1="881.00" y1="102.53" x2="891.00" y2="102.53" stroke="#dc2626" stroke-width="1.2" opacity="0.7"/>
<circle cx="886.00" cy="96.02" r="4.5" fill="#dc2626" stroke="#ffffff" stroke-width="1.4"/>
<polyline fill="none" stroke="#16a34a" stroke-width="2.4" points="88.00,331.75 354.00,250.21 620.00,173.58 886.00,93.40"/>
<line x1="88.00" y1="329.26" x2="88.00" y2="334.23" stroke="#16a34a" stroke-width="1.2" opacity="0.7"/>
<line x1="83.00" y1="329.26" x2="93.00" y2="329.26" stroke="#16a34a" stroke-width="1.2" opacity="0.7"/>
<line x1="83.00" y1="334.23" x2="93.00" y2="334.23" stroke="#16a34a" stroke-width="1.2" opacity="0.7"/>
<circle cx="88.00" cy="331.75" r="4.5" fill="#16a34a" stroke="#ffffff" stroke-width="1.4"/>
<line x1="354.00" y1="247.59" x2="354.00" y2="252.82" stroke="#16a34a" stroke-width="1.2" opacity="0.7"/>
<line x1="349.00" y1="247.59" x2="359.00" y2="247.59" stroke="#16a34a" stroke-width="1.2" opacity="0.7"/>
<line x1="349.00" y1="252.82" x2="359.00" y2="252.82" stroke="#16a34a" stroke-width="1.2" opacity="0.7"/>
<circle cx="354.00" cy="250.21" r="4.5" fill="#16a34a" stroke="#ffffff" stroke-width="1.4"/>
<line x1="620.00" y1="168.65" x2="620.00" y2="178.50" stroke="#16a34a" stroke-width="1.2" opacity="0.7"/>
<line x1="615.00" y1="168.65" x2="625.00" y2="168.65" stroke="#16a34a" stroke-width="1.2" opacity="0.7"/>
<line x1="615.00" y1="178.50" x2="625.00" y2="178.50" stroke="#16a34a" stroke-width="1.2" opacity="0.7"/>
<circle cx="620.00" cy="173.58" r="4.5" fill="#16a34a" stroke="#ffffff" stroke-width="1.4"/>
<line x1="886.00" y1="88.00" x2="886.00" y2="98.80" stroke="#16a34a" stroke-width="1.2" opacity="0.7"/>
<line x1="881.00" y1="88.00" x2="891.00" y2="88.00" stroke="#16a34a" stroke-width="1.2" opacity="0.7"/>
<line x1="881.00" y1="98.80" x2="891.00" y2="98.80" stroke="#16a34a" stroke-width="1.2" opacity="0.7"/>
<circle cx="886.00" cy="93.40" r="4.5" fill="#16a34a" stroke="#ffffff" stroke-width="1.4"/>
<polyline fill="none" stroke="#6b7280" stroke-width="2.4" points="88.00,333.11 354.00,251.95 620.00,171.40 886.00,92.18"/>
<line x1="88.00" y1="328.33" x2="88.00" y2="337.89" stroke="#6b7280" stroke-width="1.2" opacity="0.7"/>
<line x1="83.00" y1="328.33" x2="93.00" y2="328.33" stroke="#6b7280" stroke-width="1.2" opacity="0.7"/>
<line x1="83.00" y1="337.89" x2="93.00" y2="337.89" stroke="#6b7280" stroke-width="1.2" opacity="0.7"/>
<circle cx="88.00" cy="333.11" r="4.5" fill="#6b7280" stroke="#ffffff" stroke-width="1.4"/>
<line x1="354.00" y1="248.20" x2="354.00" y2="255.71" stroke="#6b7280" stroke-width="1.2" opacity="0.7"/>
<line x1="349.00" y1="248.20" x2="359.00" y2="248.20" stroke="#6b7280" stroke-width="1.2" opacity="0.7"/>
<line x1="349.00" y1="255.71" x2="359.00" y2="255.71" stroke="#6b7280" stroke-width="1.2" opacity="0.7"/>
<circle cx="354.00" cy="251.95" r="4.5" fill="#6b7280" stroke="#ffffff" stroke-width="1.4"/>
<line x1="620.00" y1="168.96" x2="620.00" y2="173.84" stroke="#6b7280" stroke-width="1.2" opacity="0.7"/>
<line x1="615.00" y1="168.96" x2="625.00" y2="168.96" stroke="#6b7280" stroke-width="1.2" opacity="0.7"/>
<line x1="615.00" y1="173.84" x2="625.00" y2="173.84" stroke="#6b7280" stroke-width="1.2" opacity="0.7"/>
<circle cx="620.00" cy="171.40" r="4.5" fill="#6b7280" stroke="#ffffff" stroke-width="1.4"/>
<line x1="886.00" y1="88.40" x2="886.00" y2="95.96" stroke="#6b7280" stroke-width="1.2" opacity="0.7"/>
<line x1="881.00" y1="88.40" x2="891.00" y2="88.40" stroke="#6b7280" stroke-width="1.2" opacity="0.7"/>
<line x1="881.00" y1="95.96" x2="891.00" y2="95.96" stroke="#6b7280" stroke-width="1.2" opacity="0.7"/>
<circle cx="886.00" cy="92.18" r="4.5" fill="#6b7280" stroke="#ffffff" stroke-width="1.4"/>
</svg>